<svg id="Icons" height="512" viewBox="0 0 74 74" width="512" xmlns="http://www.w3.org/2000/svg"><path d="m20.2 67.57a1 1 0 0 1 -.5-.132c-.936-.537-1.83-1.1-2.656-1.678a1 1 0 1 1 1.146-1.64c.777.543 1.619 1.075 2.5 1.582a1 1 0 0 1 -.5 1.868z"/><path d="m37 72h-.41a1 1 0 0 1 0-2h.41a33 33 0 1 0 -24.527-10.92 1 1 0 1 1 -1.486 1.34 35 35 0 1 1 26.013 11.58z"/><path d="m29.571 71.18a1.034 1.034 0 0 1 -.213-.022c-.972-.211-1.968-.478-2.962-.8a1 1 0 0 1 .604-1.9c.933.3 1.868.548 2.777.745a1 1 0 0 1 -.21 1.977z"/><path d="m61.163 48.625a1 1 0 0 1 -.912-1.41 25.13 25.13 0 0 0 2.216-10.373 25.467 25.467 0 0 0 -50.934 0 25 25 0 0 0 2.224 10.371 1 1 0 1 1 -1.822.824 26.978 26.978 0 0 1 -2.4-11.195 27.467 27.467 0 0 1 54.934 0 27.127 27.127 0 0 1 -2.391 11.193 1 1 0 0 1 -.915.59z"/><path d="m34.741 51.464a5.442 5.442 0 0 1 -4.89-7.809c1.089-2.25 11.849-15.277 13.072-16.755a1 1 0 0 1 1.748.846c-.4 1.877-3.942 18.4-5.031 20.647a5.451 5.451 0 0 1 -4.9 3.071zm7.1-20.1c-4.441 5.436-9.573 11.887-10.19 13.162a3.438 3.438 0 1 0 6.189 2.995c.617-1.274 2.492-9.302 4-16.154z"/></svg>